<svg width="18" height="18" viewBox="0 0 18 18" fill="none" xmlns="http://www.w3.org/2000/svg">
<path d="M13.91 14.4871H13.9068V14.5371C13.9068 15.317 13.2877 15.9507 12.5312 15.9507H5.83199C5.07548 15.9507 4.45636 15.317 4.45636 14.5371V4.31593H13.91V14.4871ZM15.578 3.34165H12.4361V2.85737C12.4361 1.87577 11.658 1.075 10.6987 1.075H7.6645C6.7052 1.075 5.92708 1.87577 5.92708 2.85737V3.34165H2.78517C2.51977 3.34165 2.30937 3.55957 2.30937 3.82879C2.30937 4.09802 2.51977 4.31593 2.78517 4.31593H3.50476V14.5371C3.50476 15.8522 4.54783 16.925 5.83199 16.925H12.5312C13.8154 16.925 14.8584 15.8522 14.8584 14.5371V4.31593H15.578C15.8434 4.31593 16.0538 4.09802 16.0538 3.82879C16.0538 3.55957 15.8434 3.34165 15.578 3.34165ZM6.87867 2.85737C6.87867 2.41098 7.23285 2.04928 7.6645 2.04928H10.6987C11.1303 2.04928 11.4845 2.41098 11.4845 2.85737V3.34165H6.87867V2.85737Z" fill="#F55555" stroke="#F55555" stroke-width="0.1"/>
<path d="M9.18166 14.483C9.44706 14.483 9.65746 14.2651 9.65746 13.9958V6.26978C9.65746 6.00056 9.44706 5.78264 9.18166 5.78264C8.91626 5.78264 8.70586 6.00056 8.70586 6.26978V13.9926C8.70586 14.2613 8.91579 14.483 9.18166 14.483Z" fill="#F55555" stroke="#F55555" stroke-width="0.1"/>
<path d="M6.40431 14.0014C6.66971 14.0014 6.88011 13.7834 6.88011 13.5142V6.74988C6.88011 6.48066 6.66971 6.26274 6.40431 6.26274C6.13891 6.26274 5.92852 6.48066 5.92852 6.74988V13.5142C5.92852 13.7837 6.14231 14.0014 6.40431 14.0014Z" fill="#F55555" stroke="#F55555" stroke-width="0.1"/>
<path d="M11.961 14.0014C12.2264 14.0014 12.4368 13.7834 12.4368 13.5142V6.74988C12.4368 6.48066 12.2264 6.26274 11.961 6.26274C11.6956 6.26274 11.4852 6.48066 11.4852 6.74988V13.5142C11.4852 13.7834 11.6956 14.0014 11.961 14.0014Z" fill="#F55555" stroke="#F55555" stroke-width="0.1"/>
</svg>
