<svg width="15" height="16" viewBox="0 0 15 16" fill="none" xmlns="http://www.w3.org/2000/svg">
<path d="M11.91 13.4871H11.9068V13.5371C11.9068 14.317 11.2877 14.9507 10.5312 14.9507H3.83199C3.07548 14.9507 2.45636 14.317 2.45636 13.5371V3.31593H11.91V13.4871ZM13.578 2.34165H10.4361V1.85737C10.4361 0.875771 9.65799 0.075 8.6987 0.075H5.6645C4.7052 0.075 3.92708 0.875771 3.92708 1.85737V2.34165H0.785172C0.519773 2.34165 0.309375 2.55957 0.309375 2.82879C0.309375 3.09802 0.519773 3.31593 0.785172 3.31593H1.50476V13.5371C1.50476 14.8522 2.54783 15.925 3.83199 15.925H10.5312C11.8154 15.925 12.8584 14.8522 12.8584 13.5371V3.31593H13.578C13.8434 3.31593 14.0538 3.09802 14.0538 2.82879C14.0538 2.55957 13.8434 2.34165 13.578 2.34165ZM4.87867 1.85737C4.87867 1.41098 5.23285 1.04928 5.6645 1.04928H8.6987C9.13034 1.04928 9.48452 1.41098 9.48452 1.85737V2.34165H4.87867V1.85737Z" fill="#F55555" stroke="#F55555" stroke-width="0.1"/>
<path d="M7.18166 13.483C7.44706 13.483 7.65746 13.2651 7.65746 12.9958V5.26978C7.65746 5.00056 7.44706 4.78264 7.18166 4.78264C6.91626 4.78264 6.70586 5.00056 6.70586 5.26978V12.9926C6.70586 13.2613 6.91579 13.483 7.18166 13.483Z" fill="#F55555" stroke="#F55555" stroke-width="0.1"/>
<path d="M4.40431 13.0014C4.66971 13.0014 4.88011 12.7834 4.88011 12.5142V5.74988C4.88011 5.48066 4.66971 5.26274 4.40431 5.26274C4.13891 5.26274 3.92852 5.48066 3.92852 5.74988V12.5142C3.92852 12.7837 4.14231 13.0014 4.40431 13.0014Z" fill="#F55555" stroke="#F55555" stroke-width="0.1"/>
<path d="M9.96095 13.0014C10.2264 13.0014 10.4368 12.7834 10.4368 12.5142V5.74988C10.4368 5.48066 10.2264 5.26274 9.96095 5.26274C9.69555 5.26274 9.48516 5.48066 9.48516 5.74988V12.5142C9.48516 12.7834 9.69555 13.0014 9.96095 13.0014Z" fill="#F55555" stroke="#F55555" stroke-width="0.1"/>
</svg>
