<svg width="16" height="14" viewBox="0 0 16 14" fill="none" xmlns="http://www.w3.org/2000/svg">
<g opacity="0.5">
<path d="M14.2256 0.772993C13.997 0.541162 13.6247 0.544427 13.3929 0.772993L11.3032 2.86274C8.71384 1.68726 5.95145 1.9746 3.3164 3.69538C1.354 4.97535 0.162189 6.58511 0.11321 6.65368C-0.043521 6.86918 -0.0369905 7.16306 0.129536 7.37203C1.24625 8.74343 2.4152 9.81116 3.61028 10.5556L1.77195 12.394C1.54338 12.6225 1.54338 12.9948 1.77195 13.2266C1.88623 13.3409 2.03643 13.3997 2.18663 13.3997C2.33683 13.3997 2.48704 13.3409 2.60132 13.2266L14.2256 1.60563C14.4541 1.37706 14.4541 1.00482 14.2256 0.772993ZM6.54572 7.62019C6.46082 7.42754 6.41838 7.21856 6.41838 6.99979C6.41838 6.57858 6.58164 6.18022 6.88204 5.87982C7.35223 5.40963 8.04773 5.29861 8.62241 5.5435L6.54572 7.62019ZM9.49096 4.67821C8.42323 3.99251 6.98326 4.11659 6.05267 5.04718C5.53023 5.56962 5.24616 6.26185 5.24616 6.99653C5.24616 7.53203 5.39962 8.04467 5.6837 8.48548L4.4723 9.69688C3.4111 9.08301 2.36622 8.17528 1.35073 6.99C1.78501 6.48062 2.70254 5.49779 3.95966 4.67821C6.1343 3.2611 8.29915 2.95417 10.4085 3.76068L9.49096 4.67821Z" fill="black"/>
<path d="M15.8706 6.62761C15.0641 5.63498 14.2282 4.79908 13.3792 4.13624C13.1213 3.93706 12.7523 3.98277 12.5499 4.23746C12.3507 4.49215 12.3964 4.86112 12.6511 5.06356C13.3237 5.58927 13.9964 6.24231 14.6494 7.00638C14.2641 7.45698 13.5131 8.26676 12.4943 9.00796C10.5319 10.4349 8.54994 10.9508 6.60713 10.5394C6.2904 10.4708 5.97694 10.6765 5.91163 10.9932C5.84306 11.31 6.04877 11.6234 6.3655 11.6887C6.87161 11.7965 7.38099 11.8487 7.89363 11.8487C8.66423 11.8487 9.44135 11.7279 10.2152 11.4863C11.2307 11.1695 12.2397 10.6471 13.216 9.93529C14.8616 8.73042 15.8445 7.40147 15.8869 7.34596C16.0437 7.13045 16.0371 6.83658 15.8706 6.62761Z" fill="black"/>
</g>
</svg>
