<svg width="16" height="14" viewBox="0 0 16 14" fill="none" xmlns="http://www.w3.org/2000/svg">
<g opacity="0.2">
<path d="M14.2256 0.773041C13.997 0.541209 13.6247 0.544475 13.3929 0.773041L11.3032 2.86279C8.71384 1.68731 5.95145 1.97465 3.3164 3.69543C1.354 4.9754 0.162189 6.58516 0.11321 6.65373C-0.043521 6.86923 -0.0369905 7.1631 0.129536 7.37208C1.24625 8.74348 2.4152 9.81121 3.61028 10.5557L1.77195 12.394C1.54338 12.6226 1.54338 12.9948 1.77195 13.2266C1.88623 13.3409 2.03643 13.3997 2.18663 13.3997C2.33683 13.3997 2.48704 13.3409 2.60132 13.2266L14.2256 1.60568C14.4541 1.37711 14.4541 1.00487 14.2256 0.773041ZM6.54572 7.62024C6.46082 7.42759 6.41838 7.21861 6.41838 6.99984C6.41838 6.57863 6.58164 6.18027 6.88204 5.87987C7.35223 5.40967 8.04773 5.29866 8.62241 5.54355L6.54572 7.62024ZM9.49096 4.67826C8.42323 3.99256 6.98326 4.11664 6.05267 5.04723C5.53023 5.56967 5.24616 6.2619 5.24616 6.99658C5.24616 7.53207 5.39962 8.04472 5.6837 8.48552L4.4723 9.69693C3.4111 9.08306 2.36622 8.17533 1.35073 6.99005C1.78501 6.48067 2.70254 5.49783 3.95966 4.67826C6.1343 3.26115 8.29915 2.95422 10.4085 3.76073L9.49096 4.67826Z" fill="black"/>
<path d="M15.8706 6.62763C15.0641 5.635 14.2282 4.7991 13.3792 4.13626C13.1213 3.93708 12.7523 3.98279 12.5499 4.23748C12.3507 4.49217 12.3964 4.86114 12.6511 5.06359C13.3237 5.58929 13.9964 6.24233 14.6494 7.0064C14.2641 7.457 13.5131 8.26678 12.4943 9.00799C10.5319 10.4349 8.54994 10.9508 6.60713 10.5394C6.2904 10.4708 5.97694 10.6765 5.91163 10.9932C5.84306 11.31 6.04877 11.6234 6.3655 11.6887C6.87161 11.7965 7.38099 11.8487 7.89363 11.8487C8.66423 11.8487 9.44135 11.7279 10.2152 11.4863C11.2307 11.1696 12.2397 10.6471 13.216 9.93531C14.8616 8.73044 15.8445 7.40149 15.8869 7.34598C16.0437 7.13048 16.0371 6.83661 15.8706 6.62763Z" fill="black"/>
</g>
</svg>
