<svg width="32" height="32" viewBox="0 0 32 32" fill="none" xmlns="http://www.w3.org/2000/svg">
<rect opacity="0.05" width="32" height="32" rx="8" fill="white"/>
<g opacity="0.4">
<path d="M16.9741 22.6658H10.9745C10.6065 22.6658 10.3079 22.3671 10.3079 21.9991V9.99989C10.3079 9.63191 10.6065 9.33328 10.9745 9.33328H16.9741C17.3428 9.33328 17.6407 9.03531 17.6407 8.66667C17.6407 8.29803 17.3428 8 16.9741 8H10.9745C9.87188 8 8.97461 8.8973 8.97461 9.99989V21.9991C8.97461 23.1017 9.87188 23.999 10.9745 23.999H16.9741C17.3428 23.999 17.6407 23.701 17.6407 23.3324C17.6407 22.9637 17.3428 22.6658 16.9741 22.6658Z" fill="white"/>
<path d="M24.8283 15.5249L20.7752 11.5251C20.5139 11.2665 20.0912 11.2698 19.8326 11.5318C19.5739 11.7938 19.5766 12.2157 19.8393 12.4744L22.7357 15.3329H14.9742C14.6056 15.3329 14.3076 15.6308 14.3076 15.9995C14.3076 16.3681 14.6056 16.6661 14.9742 16.6661H22.7357L19.8393 19.5246C19.5766 19.7832 19.5746 20.2052 19.8326 20.4672C19.9632 20.5992 20.1352 20.6658 20.3072 20.6658C20.4766 20.6658 20.6459 20.6018 20.7752 20.4738L24.8283 16.4741C24.9549 16.3488 25.0269 16.1781 25.0269 15.9994C25.0269 15.8209 24.9556 15.6509 24.8283 15.5249Z" fill="white"/>
</g>
</svg>
