<svg width="98" height="20" viewBox="0 0 98 20" fill="none" xmlns="http://www.w3.org/2000/svg">
<path d="M49.6212 4.91346L47.9657 6.8426C47.3955 6.31729 46.7425 6.05464 46.0067 6.05464C45.6021 6.05464 45.2802 6.14521 45.0411 6.32635C44.8203 6.48937 44.71 6.7158 44.71 7.00562C44.71 7.47658 45.0686 7.8298 45.786 8.06528L46.5862 8.30982C48.1497 8.7989 49.1613 9.36043 49.6212 9.99442C50.0259 10.5378 50.2282 11.1899 50.2282 11.9507C50.2282 13.1462 49.7867 14.1425 48.9038 14.9395C47.9841 15.7728 46.7885 16.1894 45.317 16.1894C43.4592 16.1894 41.914 15.5373 40.6816 14.2331L42.4475 12.2224C43.2384 13.1281 44.1213 13.581 45.0962 13.581C45.5745 13.581 45.97 13.4723 46.2827 13.2549C46.5954 13.0194 46.7517 12.7024 46.7517 12.3039C46.7517 11.7605 46.4022 11.362 45.7032 11.1084L44.9307 10.8367C43.7351 10.4201 42.8797 9.94913 42.3647 9.42383C41.7577 8.78984 41.4542 8.03811 41.4542 7.16865C41.4542 6.08181 41.8681 5.19423 42.6958 4.5059C43.4132 3.94437 44.4524 3.6636 45.8136 3.6636C47.2484 3.6636 48.5176 4.08022 49.6212 4.91346Z" fill="#F0640C"/>
<path d="M58.8136 6.86976H56.496V15.809H53.1298V6.86976H51.8055V4.04399H53.1298V0.0227051H56.496V4.04399H58.8136V6.86976Z" fill="#F0640C"/>
<path d="M61.9737 5.32103C63.1877 4.21608 64.7972 3.6636 66.8021 3.6636C68.8071 3.6636 70.4166 4.21608 71.6306 5.32103C72.9734 6.51654 73.6448 8.05623 73.6448 9.94007C73.6448 11.8058 72.9734 13.3364 71.6306 14.532C70.4166 15.6369 68.8071 16.1894 66.8021 16.1894C64.7972 16.1894 63.1877 15.6369 61.9737 14.532C60.6309 13.3364 59.9595 11.8058 59.9595 9.94007C59.9595 8.05623 60.6309 6.51654 61.9737 5.32103ZM64.4017 12.2768C65.0455 12.9289 65.8457 13.2549 66.8021 13.2549C67.7586 13.2549 68.5588 12.9289 69.2026 12.2768C69.8464 11.6247 70.1683 10.8458 70.1683 9.94007C70.1683 9.01626 69.8464 8.22831 69.2026 7.57621C68.5588 6.92411 67.7586 6.59806 66.8021 6.59806C65.8457 6.59806 65.0455 6.92411 64.4017 7.57621C63.7579 8.22831 63.436 9.01626 63.436 9.94007C63.436 10.8458 63.7579 11.6247 64.4017 12.2768Z" fill="#F0640C"/>
<path d="M76.2483 15.809V4.04399H79.6144V5.8101C80.0191 5.04932 80.5157 4.5059 81.1043 4.17985C81.6561 3.83568 82.3183 3.6636 83.0909 3.6636C83.5323 3.6636 84.0106 3.75417 84.5256 3.93531L84.0842 7.03279C83.6611 6.74297 83.1369 6.59806 82.5115 6.59806C81.5366 6.59806 80.7916 6.91505 80.2766 7.54904C79.8351 8.09245 79.6144 8.96192 79.6144 10.1574V15.809H76.2483Z" fill="#F0640C"/>
<path d="M94.8269 12.0322L97.9171 12.5213C97.7883 12.8474 97.6136 13.1734 97.3928 13.4995C97.1905 13.8074 96.8686 14.1968 96.4271 14.6678C95.9857 15.1207 95.3879 15.492 94.6337 15.7818C93.8796 16.0535 93.015 16.1894 92.0401 16.1894C90.1639 16.1894 88.6372 15.6369 87.46 14.532C86.2092 13.3727 85.5838 11.842 85.5838 9.94007C85.5838 8.05623 86.1908 6.51654 87.4048 5.32103C88.5453 4.21608 90.0444 3.6636 91.9022 3.6636C93.9255 3.6636 95.4798 4.30665 96.5651 5.59273C97.5216 6.7158 97.9998 8.25548 97.9998 10.2118V10.4835H89.0603C89.0603 11.2805 89.2534 11.9417 89.6397 12.467C90.1915 13.2096 90.9917 13.581 92.0401 13.581C93.2909 13.581 94.2198 13.0647 94.8269 12.0322ZM89.1707 8.36416H94.8269C94.6981 7.60338 94.3578 7.02373 93.806 6.62523C93.2725 6.20861 92.6655 6.0003 91.985 6.0003C91.3228 6.0003 90.7158 6.20861 90.1639 6.62523C89.6305 7.04185 89.2994 7.62149 89.1707 8.36416Z" fill="#F0640C"/>
<g opacity="0.8">
<path d="M3.38268 14.0141V19.8636H0V3.35782H3.38268V4.94073C4.30691 3.62164 5.61008 2.9621 7.29217 2.9621C9.04821 2.9621 10.4715 3.57453 11.5621 4.79939C12.6527 6.02426 13.198 7.5789 13.198 9.4633C13.198 11.3477 12.6342 12.9118 11.5067 14.1555C10.3976 15.3803 8.96503 15.9928 7.20899 15.9928C5.60083 15.9928 4.3254 15.3332 3.38268 14.0141ZM8.7617 7.00415C8.13322 6.34461 7.33839 6.01484 6.37719 6.01484C5.41599 6.01484 4.62115 6.34461 3.99267 7.00415C3.3642 7.66369 3.04996 8.48341 3.04996 9.4633C3.04996 10.4432 3.3642 11.2723 3.99267 11.9507C4.62115 12.6103 5.41599 12.94 6.37719 12.94C7.33839 12.94 8.13322 12.6103 8.7617 11.9507C9.39018 11.2723 9.70442 10.4432 9.70442 9.4633C9.70442 8.48341 9.39018 7.66369 8.7617 7.00415Z" fill="white"/>
<path d="M15.813 15.5971V3.35782H19.1957V5.19512C19.6023 4.40367 20.1014 3.83835 20.6929 3.49915C21.2475 3.14112 21.9129 2.9621 22.6893 2.9621C23.1329 2.9621 23.6135 3.05632 24.1311 3.24476L23.6874 6.4671C23.2623 6.16559 22.7355 6.01484 22.107 6.01484C21.1273 6.01484 20.3787 6.34461 19.8611 7.00415C19.4175 7.56947 19.1957 8.47399 19.1957 9.7177V15.5971H15.813Z" fill="white"/>
<path d="M27.2185 4.68633C28.4385 3.53684 30.0559 2.9621 32.0707 2.9621C34.0855 2.9621 35.7029 3.53684 36.9229 4.68633C38.2723 5.93004 38.947 7.53179 38.947 9.49157C38.947 11.4325 38.2723 13.0248 36.9229 14.2685C35.7029 15.418 34.0855 15.9928 32.0707 15.9928C30.0559 15.9928 28.4385 15.418 27.2185 14.2685C25.8691 13.0248 25.1944 11.4325 25.1944 9.49157C25.1944 7.53179 25.8691 5.93004 27.2185 4.68633ZM29.6585 11.9225C30.3054 12.6008 31.1095 12.94 32.0707 12.94C33.0319 12.94 33.836 12.6008 34.483 11.9225C35.1299 11.2441 35.4534 10.4338 35.4534 9.49157C35.4534 8.53052 35.1299 7.71081 34.483 7.03242C33.836 6.35403 33.0319 6.01484 32.0707 6.01484C31.1095 6.01484 30.3054 6.35403 29.6585 7.03242C29.0115 7.71081 28.688 8.53052 28.688 9.49157C28.688 10.4338 29.0115 11.2441 29.6585 11.9225Z" fill="white"/>
</g>
</svg>
