<svg width="52" height="39" viewBox="0 0 52 39" fill="none" xmlns="http://www.w3.org/2000/svg">
<g opacity="0.1">
<path d="M48.6452 0.693542H3.35484C1.50214 0.693542 0 2.1668 0 3.98386V35.0161C0 36.8332 1.50214 38.3064 3.35484 38.3064H48.6452C50.4979 38.3064 52 36.8332 52 35.0161V3.98386C52 2.1668 50.4979 0.693542 48.6452 0.693542ZM3.35484 2.3387H48.6452C49.5715 2.3387 50.3226 3.07533 50.3226 3.98386V29.7778L40.4612 20.3691C38.8902 19.0513 36.5731 19.0573 35.0096 20.3832L23.7959 30.2626L16.9773 24.482C15.4064 23.1646 13.0893 23.1702 11.5257 24.4961L1.67742 33.1717V3.98386C1.67742 3.07533 2.42849 2.3387 3.35484 2.3387ZM1.71264 35.3511L12.6269 25.734C13.5631 24.9455 14.9457 24.9439 15.8843 25.73L28.7795 36.6613H3.35484C2.55995 36.6613 1.8744 36.1142 1.71264 35.3511ZM48.6452 36.6613H31.3443L25.0773 31.3458L36.1108 21.6211C37.0314 20.8391 38.3935 20.8238 39.3321 21.5849L50.3226 32.0728V35.0161C50.3226 35.9247 49.5715 36.6613 48.6452 36.6613Z" fill="#231F20"/>
<path fill-rule="evenodd" clip-rule="evenodd" d="M25.9997 13.7421C25.9997 16.9224 23.3714 19.5002 20.1288 19.5002C16.8878 19.4966 14.2615 16.9208 14.2578 13.7421C14.2578 10.5619 16.8862 7.98407 20.1288 7.98407C23.3714 7.98407 25.9997 10.5619 25.9997 13.7421ZM22.3907 10.2783C21.7381 9.86748 20.9618 9.62923 20.1288 9.62923C19.2961 9.63024 18.5203 9.86885 17.8681 10.2797L20.1287 12.5403L22.3907 10.2783ZM23.616 11.4571C24.0621 12.1107 24.3223 12.8966 24.3223 13.7421C24.3223 14.5877 24.0621 15.3738 23.6158 16.0274L21.3308 13.7424L23.616 11.4571ZM22.3904 17.2062L20.1287 14.9444L17.8671 17.2061C18.5196 17.6168 19.2959 17.855 20.1288 17.855C20.9617 17.855 21.7378 17.6169 22.3904 17.2062ZM16.6417 16.0273L18.9266 13.7424L16.6428 11.4585C16.1968 12.1117 15.9363 12.8971 15.9352 13.7421C15.9352 14.5877 16.1955 15.3737 16.6417 16.0273Z" fill="#231F20"/>
<path d="M44.4516 33.371H36.9032C36.4401 33.371 36.0645 33.7393 36.0645 34.1936C36.0645 34.6478 36.4401 35.0161 36.9032 35.0161H44.4516C44.9148 35.0161 45.2903 34.6478 45.2903 34.1936C45.2903 33.7393 44.9148 33.371 44.4516 33.371Z" fill="#231F20"/>
<path d="M47.8065 33.371H46.9678C46.5046 33.371 46.1291 33.7393 46.1291 34.1936C46.1291 34.6478 46.5046 35.0161 46.9678 35.0161H47.8065C48.2696 35.0161 48.6452 34.6478 48.6452 34.1936C48.6452 33.7393 48.2696 33.371 47.8065 33.371Z" fill="#231F20"/>
</g>
</svg>
