<svg width="15" height="16" viewBox="0 0 15 16" fill="none" xmlns="http://www.w3.org/2000/svg">
<path d="M12.8279 1.63849C12.4315 1.22967 11.8939 1 11.3333 1C10.7728 1 10.2352 1.22967 9.83876 1.63849L1.45989 10.2815C1.40272 10.341 1.36134 10.4146 1.33972 10.4953L0.238307 14.5947C0.217202 14.6773 0.217446 14.7641 0.239015 14.8465C0.260584 14.9289 0.302723 15.004 0.361228 15.0643C0.419733 15.1247 0.492561 15.1681 0.572439 15.1904C0.652317 15.2126 0.736452 15.2129 0.816454 15.1911L4.79062 14.054C4.86852 14.0316 4.93954 13.9889 4.9969 13.93L13.3824 5.28994C13.7783 4.88077 14.0006 4.32632 14.0006 3.74825C14.0006 3.17018 13.7783 2.61572 13.3824 2.20656L12.8279 1.63849ZM2.48371 10.5968L9.34104 3.52327L11.5524 5.80432L4.69505 12.8779L2.48371 10.5968ZM2.04182 11.5114L3.80844 13.3337L1.36432 14.0325L2.04182 11.5114ZM12.7153 4.60572L12.2176 5.11913L10.0062 2.83807L10.5049 2.32466C10.7251 2.09751 11.0238 1.9699 11.3352 1.9699C11.6466 1.9699 11.9453 2.09751 12.1655 2.32466L12.7172 2.89273C12.9363 3.12049 13.059 3.42849 13.0584 3.74934C13.0579 4.07019 12.9342 4.37776 12.7143 4.60474L12.7153 4.60572Z" fill="#F0640C" stroke="#F0640C" stroke-width="0.1"/>
</svg>
