<svg width="16" height="16" viewBox="0 0 16 16" fill="none" xmlns="http://www.w3.org/2000/svg">
<path d="M14.2233 0.943808C13.7917 0.510273 13.2064 0.266724 12.5962 0.266724C11.9859 0.266724 11.4006 0.510273 10.969 0.943808L1.84697 10.1093C1.78473 10.1723 1.73968 10.2504 1.71615 10.336L0.517039 14.6833C0.494062 14.7708 0.494327 14.8628 0.517809 14.9502C0.541291 15.0376 0.587168 15.1172 0.650863 15.1812C0.714557 15.2452 0.793845 15.2913 0.880808 15.3149C0.967771 15.3385 1.05937 15.3388 1.14647 15.3157L5.47313 14.1098C5.55794 14.086 5.63526 14.0408 5.69771 13.9784L14.827 4.81599C15.258 4.38208 15.5 3.79411 15.5 3.1811C15.5 2.56809 15.258 1.98012 14.827 1.54622L14.2233 0.943808ZM2.96161 10.4436L10.4272 2.94252L12.8347 5.36146L5.36909 12.8626L2.96161 10.4436ZM2.48052 11.4135L4.40383 13.346L1.74293 14.0871L2.48052 11.4135ZM14.1007 4.0904L13.5589 4.63485L11.1514 2.2159L11.6943 1.67146C11.934 1.43058 12.2592 1.29525 12.5982 1.29525C12.9373 1.29525 13.2624 1.43058 13.5022 1.67146L14.1028 2.27387C14.3413 2.51539 14.4749 2.84202 14.4743 3.18226C14.4737 3.5225 14.339 3.84866 14.0997 4.08937L14.1007 4.0904Z" fill="white"/>
<path d="M14.2233 0.943808C13.7917 0.510273 13.2064 0.266724 12.5962 0.266724C11.9859 0.266724 11.4006 0.510273 10.969 0.943808L1.84697 10.1093C1.78473 10.1723 1.73968 10.2504 1.71615 10.336L0.517039 14.6833C0.494062 14.7708 0.494327 14.8628 0.517809 14.9502C0.541291 15.0376 0.587168 15.1172 0.650863 15.1812C0.714557 15.2452 0.793845 15.2913 0.880808 15.3149C0.967771 15.3385 1.05937 15.3388 1.14647 15.3157L5.47313 14.1098C5.55794 14.086 5.63526 14.0408 5.69771 13.9784L14.827 4.81599C15.258 4.38208 15.5 3.79411 15.5 3.1811C15.5 2.56809 15.258 1.98012 14.827 1.54622L14.2233 0.943808ZM2.96161 10.4436L10.4272 2.94252L12.8347 5.36146L5.36909 12.8626L2.96161 10.4436ZM2.48052 11.4135L4.40383 13.346L1.74293 14.0871L2.48052 11.4135ZM14.1007 4.0904L13.5589 4.63485L11.1514 2.2159L11.6943 1.67146C11.934 1.43058 12.2592 1.29525 12.5982 1.29525C12.9373 1.29525 13.2624 1.43058 13.5022 1.67146L14.1028 2.27387C14.3413 2.51539 14.4749 2.84202 14.4743 3.18226C14.4737 3.5225 14.339 3.84866 14.0997 4.08937L14.1007 4.0904Z" stroke="white"/>
</svg>
