<svg width="10" height="10" viewBox="0 0 10 10" fill="none" xmlns="http://www.w3.org/2000/svg">
<path d="M0.954479 8.53457L0.848418 8.64063L0.954479 8.7467L1.25215 9.04438L1.35822 9.15045L1.46429 9.04438L9.04299 1.46543L9.14905 1.35937L9.04299 1.2533L8.74531 0.955619L8.63924 0.849548L8.53318 0.955619L0.954479 8.53457Z" fill="#F0640C" stroke="#F0640C" stroke-width="0.3"/>
<path d="M2.26312 3.67632C3.04257 3.67632 3.67623 3.04263 3.67623 2.26316C3.67623 1.48369 3.04257 0.85 2.26312 0.85C1.48366 0.85 0.85 1.48369 0.85 2.26316C0.85 3.04263 1.48366 3.67632 2.26312 3.67632ZM2.26312 1.57105C2.64467 1.57105 2.95519 1.88158 2.95519 2.26316C2.95519 2.64474 2.64467 2.95526 2.26312 2.95526C1.88156 2.95526 1.57104 2.64474 1.57104 2.26316C1.57104 1.88158 1.88156 1.57105 2.26312 1.57105Z" fill="#F0640C" stroke="#F0640C" stroke-width="0.3"/>
<path d="M7.73773 6.32369C6.95827 6.32369 6.32461 6.95737 6.32461 7.73684C6.32461 8.51631 6.95827 9.15 7.73773 9.15C8.51718 9.15 9.15084 8.51631 9.15084 7.73684C9.15084 6.95737 8.51718 6.32369 7.73773 6.32369ZM7.73773 8.42895C7.35617 8.42895 7.04565 8.11843 7.04565 7.73684C7.04565 7.35526 7.35617 7.04474 7.73773 7.04474C8.11928 7.04474 8.4298 7.35526 8.4298 7.73684C8.4298 8.11843 8.11928 8.42895 7.73773 8.42895Z" fill="#F0640C" stroke="#F0640C" stroke-width="0.3"/>
</svg>
