<svg width="20" height="20" viewBox="0 0 20 20" fill="none" xmlns="http://www.w3.org/2000/svg">
<g opacity="0.7">
<path d="M2.48685 3.04541L2.48683 3.04544L2.47535 3.05752C2.3653 3.1733 2.2559 3.2884 2.14783 3.39647L2.14774 3.39657C1.95002 3.59406 1.82537 3.99919 1.8491 4.61536C1.87232 5.21812 2.03626 5.96902 2.34572 6.78967C3.11126 8.81864 4.64006 11.0522 6.66003 13.0722C8.67945 15.091 10.9119 16.6198 12.9413 17.3847L12.9415 17.3848C13.7621 17.6948 14.5129 17.8586 15.1156 17.8817C15.7316 17.9052 16.1367 17.7805 16.334 17.5832C16.4459 17.4713 16.5651 17.3582 16.6853 17.2446C16.9949 16.9503 17.3052 16.6547 17.5367 16.3456C17.7686 16.0359 17.896 15.7451 17.8843 15.463C17.8681 15.0723 17.5756 14.5919 16.8891 14.0402L16.889 14.0402C15.8439 13.1997 15.2443 12.9895 14.823 13.0382C14.6154 13.0622 14.4263 13.1516 14.224 13.3032C14.0173 13.458 13.8119 13.6655 13.5649 13.9159L13.5645 13.9164L13.3737 14.109L13.373 14.1097C13.0761 14.4069 12.6884 14.513 12.2494 14.4534C11.8218 14.3954 11.3403 14.1811 10.8133 13.8385L10.8132 13.8385C10.0805 13.3619 9.18729 12.5953 8.16123 11.5687C8.16121 11.5686 8.16119 11.5686 8.16116 11.5686M2.48685 3.04541L5.79742 6.53377C5.00781 7.32517 5.81471 8.86919 8.33799 11.3919L8.16116 11.5686M2.48685 3.04541C2.77468 2.74251 3.06396 2.43887 3.36616 2.20899C3.66918 1.97849 3.95472 1.84635 4.23133 1.84635C4.24736 1.84635 4.25797 1.84638 4.26774 1.84675C4.65856 1.8637 5.13821 2.15635 5.6909 2.84205M2.48685 3.04541L5.6909 2.84205M8.16116 11.5686C6.89591 10.3036 6.04068 9.26491 5.60383 8.42943C5.38508 8.01106 5.26123 7.62515 5.25646 7.27538C5.25154 6.91578 5.3732 6.60499 5.62044 6.35719L5.62176 6.35588L5.62176 6.35588L5.81201 6.16802L5.81234 6.16769C6.06335 5.92077 6.27139 5.71532 6.42662 5.50854C6.57858 5.30612 6.6683 5.11691 6.69251 4.90915C6.74161 4.48771 6.53165 3.88774 5.6909 2.84205M8.16116 11.5686L5.6909 2.84205M1.31967 7.17602L1.31968 7.17606C2.14578 9.36561 3.76987 11.7324 5.88424 13.8468C7.998 15.9606 10.3642 17.5847 12.5539 18.4102C13.5524 18.787 14.474 18.9809 15.2506 18.9809C16.0192 18.9809 16.6789 18.79 17.1087 18.3595L16.9319 18.1829L17.1081 18.3601C17.1981 18.2706 17.294 18.1792 17.3949 18.0831C17.4096 18.069 17.4245 18.0548 17.4395 18.0405L17.4466 18.0338C17.7937 17.7043 18.1848 17.3331 18.4818 16.9141C18.7837 16.4883 19.0027 15.9942 18.9791 15.4191L18.9791 15.419C18.9461 14.6215 18.4524 13.8922 17.5751 13.1871C16.3004 12.1624 15.3735 11.8271 14.5964 11.9507C13.8453 12.0701 13.3094 12.614 12.8114 13.1193C12.8023 13.1285 12.7932 13.1378 12.7841 13.1471C12.7839 13.1472 12.7838 13.1473 12.7837 13.1474L12.5971 13.3358C12.597 13.3359 12.5969 13.336 12.5968 13.3361C12.5794 13.3533 12.5454 13.3733 12.4668 13.3735C12.3849 13.3738 12.2777 13.3518 12.1499 13.3065C11.8953 13.2162 11.618 13.0552 11.4102 12.9201C10.7554 12.4946 9.92349 11.7823 8.93581 10.7946C7.42161 9.28045 6.76874 8.34543 6.51091 7.78461C6.38268 7.50569 6.35987 7.33567 6.36459 7.24251C6.3669 7.19705 6.37571 7.16984 6.38206 7.1554C6.3881 7.14169 6.39365 7.1356 6.39506 7.13416C6.39513 7.13409 6.39519 7.13403 6.39524 7.13398L6.58054 6.95045C6.58062 6.95037 6.5807 6.9503 6.58078 6.95022C6.59047 6.94067 6.60018 6.93112 6.60991 6.92154C7.11596 6.42344 7.66043 5.88751 7.7807 5.13663C7.90525 4.35906 7.57015 3.43154 6.54454 2.156C5.83957 1.27878 5.10965 0.784366 4.31324 0.751383V0.751379L4.31181 0.751328C3.73739 0.730837 3.24419 0.949144 2.81869 1.25009C2.39802 1.54762 2.02562 1.93925 1.69453 2.28745L1.69208 2.29002L1.69191 2.29021L1.68233 2.3003C1.57437 2.41406 1.47252 2.52139 1.37271 2.62121C0.940118 3.05345 0.749222 3.71463 0.750002 4.48584C0.750787 5.26111 0.944347 6.18073 1.31967 7.17602Z" fill="#F0640C" stroke="#F0640C" stroke-width="0.5"/>
</g>
</svg>
