<svg width="13" height="13" viewBox="0 0 13 13" fill="none" xmlns="http://www.w3.org/2000/svg">
<path fill-rule="evenodd" clip-rule="evenodd" d="M1.70711 0.303269C1.31658 -0.0872551 0.683417 -0.0872551 0.292893 0.303269C-0.0976311 0.693793 -0.0976311 1.32696 0.292893 1.71748L4.60946 6.03405L0.30445 10.3391C-0.0860747 10.7296 -0.0860744 11.3627 0.30445 11.7533C0.694974 12.1438 1.32814 12.1438 1.71866 11.7533L6.02367 7.44826L10.3286 11.7532C10.7191 12.1437 11.3523 12.1437 11.7428 11.7532C12.1333 11.3626 12.1333 10.7295 11.7428 10.339L7.43788 6.03405L11.7543 1.71758C12.1449 1.32706 12.1449 0.693893 11.7543 0.303369C11.3638 -0.0871556 10.7307 -0.0871556 10.3401 0.303369L6.02367 4.61983L1.70711 0.303269Z" fill="#F55555"/>
</svg>
