<svg width="15" height="15" viewBox="0 0 15 15" fill="none" xmlns="http://www.w3.org/2000/svg">
<g opacity="0.4">
<path fill-rule="evenodd" clip-rule="evenodd" d="M8.11112 1.31538C5.44741 1.31538 3.28804 3.47475 3.28804 6.13846C3.28804 8.80217 5.44741 10.9615 8.11112 10.9615C10.7748 10.9615 12.9342 8.80217 12.9342 6.13846C12.9342 3.47475 10.7748 1.31538 8.11112 1.31538ZM1.97266 6.13846C1.97266 2.74828 4.72094 0 8.11112 0C11.5013 0 14.2496 2.74828 14.2496 6.13846C14.2496 9.52864 11.5013 12.2769 8.11112 12.2769C4.72094 12.2769 1.97266 9.52864 1.97266 6.13846Z" fill="black"/>
<path fill-rule="evenodd" clip-rule="evenodd" d="M4.63044 9.61956C4.88729 9.8764 4.88729 10.2928 4.63044 10.5497L1.12275 14.0574C0.865906 14.3142 0.449478 14.3142 0.192634 14.0574C-0.0642112 13.8005 -0.0642112 13.3841 0.192634 13.1273L3.70033 9.61956C3.95717 9.36271 4.3736 9.36271 4.63044 9.61956Z" fill="black"/>
</g>
</svg>
