<svg width="17" height="13" viewBox="0 0 17 13" fill="none" xmlns="http://www.w3.org/2000/svg">
<path d="M8.5 0.704544C4.63636 0.704544 1.31364 3.1 0 6.5C1.31364 9.9 4.63636 12.2955 8.5 12.2955C12.3636 12.2955 15.6864 9.9 17 6.5C15.6864 3.1 12.3636 0.704544 8.5 0.704544ZM8.5 10.3636C6.33636 10.3636 4.63636 8.66363 4.63636 6.5C4.63636 4.33636 6.33636 2.63636 8.5 2.63636C10.6636 2.63636 12.3636 4.33636 12.3636 6.5C12.3636 8.66363 10.6636 10.3636 8.5 10.3636ZM8.5 4.18182C7.18636 4.18182 6.18182 5.18636 6.18182 6.5C6.18182 7.81363 7.18636 8.81818 8.5 8.81818C9.81364 8.81818 10.8182 7.81363 10.8182 6.5C10.8182 5.18636 9.81364 4.18182 8.5 4.18182Z" fill="#b3b3b3"/>
</svg>
