<svg width="14" height="14" viewBox="0 0 14 14" fill="none" xmlns="http://www.w3.org/2000/svg">
<path d="M13.3003 6.86967C13.5789 6.59813 13.6772 6.1996 13.557 5.82962C13.4368 5.45963 13.123 5.19506 12.738 5.13914L9.37171 4.64999C9.30563 4.6404 9.24851 4.59891 9.21895 4.53899L7.71351 1.48866C7.54136 1.1398 7.19274 0.923096 6.80371 0.923096C6.41468 0.923096 6.06606 1.1398 5.89392 1.48866L4.38848 4.53902C4.35888 4.59891 4.30179 4.6404 4.23568 4.65002L0.869456 5.13914C0.48448 5.19506 0.170688 5.45963 0.0504358 5.82962C-0.0698166 6.1996 0.0285608 6.59813 0.307167 6.86967L2.74301 9.24404C2.79082 9.29067 2.81267 9.35783 2.80137 9.42367L2.22634 12.7763C2.16059 13.1598 2.31522 13.54 2.62994 13.7686C2.94467 13.9973 3.35416 14.0269 3.69845 13.8459L6.7093 12.263C6.76843 12.2319 6.83902 12.2319 6.89818 12.263L9.90906 13.8459C10.0588 13.9246 10.2209 13.9635 10.3821 13.9635C10.5916 13.9635 10.7997 13.8979 10.9775 13.7686C11.2922 13.5399 11.4469 13.1597 11.3811 12.7763L10.8061 9.42364C10.7948 9.3578 10.8166 9.29064 10.8644 9.24401L13.3003 6.86967ZM10.0061 9.5609L10.5812 12.9136C10.6004 13.0258 10.5311 13.0898 10.5005 13.112C10.4698 13.1343 10.3875 13.1805 10.2868 13.1275L7.27589 11.5445C7.12808 11.4669 6.96594 11.428 6.80377 11.428C6.6416 11.428 6.47943 11.4669 6.33166 11.5445L3.32081 13.1274C3.22003 13.1804 3.13779 13.1342 3.10711 13.112C3.07643 13.0897 3.00714 13.0257 3.0264 12.9135L3.60143 9.5609C3.65789 9.23172 3.54884 8.89602 3.30963 8.66288L0.873783 6.28851C0.792263 6.209 0.810712 6.11655 0.822461 6.08049C0.83415 6.0444 0.873603 5.95873 0.986253 5.94239L4.35245 5.45323C4.68295 5.40522 4.96855 5.19777 5.11639 4.89822L6.62183 1.84786C6.67222 1.74578 6.76585 1.73475 6.8038 1.73475C6.84169 1.73475 6.93532 1.74575 6.98574 1.84786V1.84789L8.49118 4.89825C8.63899 5.1978 8.92456 5.40525 9.25506 5.45326L12.6213 5.94242C12.734 5.95876 12.7734 6.04443 12.7851 6.08052C12.7968 6.11661 12.8153 6.20909 12.7338 6.28854L10.2979 8.66291C10.0587 8.89602 9.94969 9.23172 10.0061 9.5609Z" fill="#F0640C"/>
</svg>
